
<svg version="1.1" xmlns="http://www.w3.org/2000/svg" xmlns:xlink="http://www.w3.org/1999/xlink" viewBox="0 0 512 512">
  <style type="text/css">
    .st0{{fill:none;stroke:#F8C129;stroke-width:24;stroke-linecap:round;stroke-linejoin:round;stroke-miterlimit:10;}}
    .st1{{fill:none;stroke:#8CC6E7;stroke-width:24;stroke-linecap:round;stroke-linejoin:round;stroke-miterlimit:10;}}
  </style>
  <g>
    <path class="st0" d="M256,472c-13.3,0-24-10.7-24-24v-34c-12.6-2.3-24.6-6.2-35.8-11.8l-16.3,16.3c-9.4,9.4-24.6,9.4-33.9,0L113.5,381
      c-9.4-9.4-9.4-24.6,0-33.9l16.3-16.3c-5.5-11.2-9.5-23.2-11.8-35.8H80c-13.3,0-24-10.7-24-24v-48c0-13.3,10.7-24,24-24h34
      c2.3-12.6,6.2-24.6,11.8-35.8l-16.3-16.3c-9.4-9.4-9.4-24.6,0-33.9l32.4-32.4c9.4-9.4,24.6-9.4,33.9,0l16.3,16.3
      c11.2-5.5,23.2-9.5,35.8-11.8V64c0-13.3,10.7-24,24-24h48c13.3,0,24,10.7,24,24v34c12.6,2.3,24.6,6.2,35.8,11.8l16.3-16.3
      c9.4-9.4,24.6-9.4,33.9,0l32.4,32.4c9.4,9.4,9.4,24.6,0,33.9l-16.3,16.3c5.5,11.2,9.5,23.2,11.8,35.8H432c13.3,0,24,10.7,24,24v48
      c0,13.3-10.7,24-24,24h-34c-2.3,12.6-6.2,24.6-11.8,35.8l16.3,16.3c9.4,9.4,9.4,24.6,0,33.9l-32.4,32.4c-9.4,9.4-24.6,9.4-33.9,0
      l-16.3-16.3c-11.2,5.5-23.2,9.5-35.8,11.8v34C280,461.3,269.3,472,256,472z"/>
    <line class="st1" x1="256" y1="136" x2="256" y2="16"/>
    <line class="st1" x1="256" y1="496" x2="256" y2="376"/>
    <line class="st1" x1="16" y1="256" x2="136" y2="256"/>
    <line class="st1" x1="376" y1="256" x2="496" y2="256"/>
    <line class="st1" x1="102.7" y1="102.7" x2="33.6" y2="33.6"/>
    <line class="st1" x1="478.4" y1="478.4" x2="409.3" y2="409.3"/>
    <line class="st1" x1="102.7" y1="409.3" x2="33.6" y2="478.4"/>
    <line class="st1" x1="478.4" y1="33.6" x2="409.3" y2="102.7"/>
  </g>
</svg>
